HIERARCHY
ROOT Hips
{
    OFFSET 0.000000 0.000000 0.000000
    CHANNELS 6 Xposition Yposition Zposition Zrotation Xrotation Yrotation
    JOINT Spine
    {
        OFFSET -0.000000 0.084000 0.000000
        CHANNELS 3 Zrotation Xrotation Yrotation
        JOINT Spine1
        {
            OFFSET -0.000000 0.216247 0.000000
            CHANNELS 3 Zrotation Xrotation Yrotation
            JOINT Neck
            {
                OFFSET -0.000000 0.215359 0.019578
                CHANNELS 3 Zrotation Xrotation Yrotation
                JOINT Head
                {
                    OFFSET -0.000000 0.143414 -0.020488
                    CHANNELS 3 Zrotation Xrotation Yrotation
                    End Site
                    {
                        OFFSET -0.000000 0.204877 0.000000
                    }
                }
            }
            JOINT LeftShoulder
            {
                OFFSET 0.040109 0.191272 -0.003631
                CHANNELS 3 Zrotation Xrotation Yrotation
                JOINT LeftArm
                {
                    OFFSET 0.138349 0.000000 0.000000
                    CHANNELS 3 Zrotation Xrotation Yrotation
                    JOINT LeftForeArm
                    {
                        OFFSET 0.335349 0.000000 0.000000
                        CHANNELS 3 Zrotation Xrotation Yrotation
                        JOINT LeftHand
                        {
                            OFFSET 0.276368 0.000000 0.000000
                            CHANNELS 3 Zrotation Xrotation Yrotation
                            End Site
                            {
                                OFFSET 0.153658 0.000000 0.000000
                            }
                        }
                    }
                }
            }
            JOINT RightShoulder
            {
                OFFSET -0.041533 0.191272 -0.003631
                CHANNELS 3 Zrotation Xrotation Yrotation
                JOINT RightArm
                {
                    OFFSET -0.138349 0.000000 0.000000
                    CHANNELS 3 Zrotation Xrotation Yrotation
                    JOINT RightForeArm
                    {
                        OFFSET -0.335349 0.000000 0.000000
                        CHANNELS 3 Zrotation Xrotation Yrotation
                        JOINT RightHand
                        {
                            OFFSET -0.276368 0.000000 0.000000
                            CHANNELS 3 Zrotation Xrotation Yrotation
                            End Site
                            {
                                OFFSET -0.153658 0.000000 0.000000
                            }
                        }
                    }
                }
            }
        }
    }
    JOINT LeftUpLeg
    {
        OFFSET 0.102438 0.000000 0.000000
        CHANNELS 3 Zrotation Xrotation Yrotation
        JOINT LeftLeg
        {
            OFFSET -0.000000 -0.442852 0.000000
            CHANNELS 3 Zrotation Xrotation Yrotation
            JOINT LeftFoot
            {
                OFFSET -0.000000 -0.461647 0.000000
                CHANNELS 3 Zrotation Xrotation Yrotation
                JOINT LeftToeBase
                {
                    OFFSET -0.000000 -0.066585 0.153658
                    CHANNELS 3 Zrotation Xrotation Yrotation
                    End Site
                    {
                        OFFSET -0.000000 0.000000 0.040975
                    }
                }
            }
        }
    }
    JOINT RightUpLeg
    {
        OFFSET -0.102438 0.000000 0.000000
        CHANNELS 3 Zrotation Xrotation Yrotation
        JOINT RightLeg
        {
            OFFSET -0.000000 -0.442852 0.000000
            CHANNELS 3 Zrotation Xrotation Yrotation
            JOINT RightFoot
            {
                OFFSET -0.000000 -0.461647 0.000000
                CHANNELS 3 Zrotation Xrotation Yrotation
                JOINT RightToeBase
                {
                    OFFSET -0.000000 -0.066585 0.153658
                    CHANNELS 3 Zrotation Xrotation Yrotation
                    End Site
                    {
                        OFFSET -0.000000 0.000000 0.040975
                    }
                }
            }
        }
    }
}
MOTION
Frames:    9
Frame Time:    0.010000
-0.526797    0.458825    0.148910    -6.894123    1.068487    -10.437176    1.475480    3.779218    -13.491508    -24.633158    7.722915    -2.762699    -26.503836    21.378321    5.927339    13.839740    -13.683555    8.426564    0.054065    2.667449    -10.049476    2.186022    16.875603    -29.086361    -1.798878    -47.771961    -69.338593    21.923834    -46.989571    12.339116    -27.520653    -14.281774    13.068369    -11.357285    -23.324081    9.811942    -11.138725    -25.888727    1.742668    -33.576103    -24.784885    -3.483261    161.405655    -61.197575    135.583115    -128.132187    66.005325    114.384956    -2.493185    -18.163818    4.452362    0.000000    0.000000    0.000000    -177.752518    -68.657021    176.615143    114.613892    77.064720    -124.942436    -11.255644    -11.829601    -1.449501    0.000000    0.000000    0.000000    
-0.526840    0.458965    0.148940    -6.983908    1.050683    -10.436765    1.441754    3.776106    -13.440541    -24.652252    7.746485    -2.739712    -26.448792    21.315802    5.924198    13.753576    -13.488276    8.397380    0.071974    2.650322    -10.056403    2.139667    16.917778    -29.056789    -1.731822    -47.736523    -69.309235    21.631638    -46.973072    12.118154    -27.515501    -14.274961    13.044671    -11.319915    -23.420019    9.853118    -11.027991    -25.661936    1.481240    -33.597801    -24.599945    -3.410272    161.342056    -61.199699    135.459671    -128.130234    65.987793    114.343536    -2.577370    -18.183437    4.442039    0.000000    0.000000    0.000000    -177.697617    -68.722260    176.621185    114.525742    77.039162    -124.864738    -11.240685    -11.949405    -1.478390    0.000000    0.000000    0.000000    
-0.526878    0.459106    0.148995    -7.072659    1.034165    -10.431364    1.407534    3.778299    -13.394764    -24.661837    7.765302    -2.720110    -26.402517    21.245697    5.919366    13.686716    -13.302783    8.374232    0.084854    2.633180    -10.059815    2.088355    16.952747    -29.035038    -1.692355    -47.702637    -69.297577    21.569483    -46.930355    12.074005    -27.508688    -14.275275    13.016273    -11.262395    -23.523096    9.897474    -10.907835    -25.434183    1.248089    -33.602757    -24.418404    -3.313514    161.284729    -61.201046    135.343735    -128.126846    65.966431    114.298012    -2.661883    -18.196833    4.436334    0.000000    0.000000    0.000000    -177.640381    -68.783806    176.638992    114.450188    77.008896    -124.800545    -11.231009    -12.068682    -1.508255    0.000000    0.000000    0.000000    
-0.526912    0.459249    0.149070    -7.160866    1.019001    -10.423083    1.370687    3.782040    -13.350931    -24.659019    7.785409    -2.701800    -26.372681    21.189785    5.916698    13.644342    -13.156811    8.359860    0.089612    2.615829    -10.064298    2.038739    16.979456    -29.017845    -1.671191    -47.662045    -69.294044    21.728107    -46.850800    12.198106    -27.500141    -14.296006    12.985394    -11.182579    -23.618692    9.942000    -10.786444    -25.213610    1.045819    -33.583736    -24.246140    -3.201198    161.234146    -61.202061    135.240723    -128.132584    65.947716    114.264992    -2.745445    -18.202726    4.433913    0.000000    0.000000    0.000000    -177.585831    -68.842651    176.660873    114.380226    76.975410    -124.741615    -11.226646    -12.186004    -1.536850    0.000000    0.000000    0.000000    
-0.526940    0.459398    0.149149    -7.246874    1.007972    -10.412861    1.328729    3.785733    -13.308628    -24.641964    7.805910    -2.685010    -26.356810    21.152279    5.917262    13.619581    -13.054824    8.352929    0.086461    2.599869    -10.069797    1.995899    16.998554    -29.006086    -1.655031    -47.612091    -69.288063    22.128029    -46.721020    12.500103    -27.486776    -14.323979    12.958741    -11.094347    -23.705532    9.975428    -10.670997    -25.010382    0.870585    -33.547974    -24.089254    -3.088544    161.193390    -61.202496    135.161987    -128.154755    65.941055    114.259048    -2.828030    -18.201382    4.431644    0.000000    0.000000    0.000000    -177.538071    -68.896767    176.682205    114.306396    76.940727    -124.678185    -11.230569    -12.299286    -1.563027    0.000000    0.000000    0.000000    
-0.526958    0.459553    0.149223    -7.328553    1.003245    -10.401162    1.280204    3.789210    -13.268085    -24.611277    7.824094    -2.670412    -26.349354    21.125774    5.918461    13.604283    -12.983925    8.349441    0.077093    2.586666    -10.074338    1.963473    17.016241    -29.002617    -1.636077    -47.559341    -69.276810    22.686808    -46.557171    12.910536    -27.463661    -14.326204    12.944622    -11.022116    -23.796394    9.983257    -10.567490    -24.831081    0.710738    -33.517414    -23.950130    -2.992539    161.161316    -61.200699    135.103363    -128.182404    65.943489    114.267525    -2.907628    -18.193909    4.431056    0.000000    0.000000    0.000000    -177.500778    -68.943718    176.698380    114.227013    76.907906    -124.609077    -11.241144    -12.406981    -1.586897    0.000000    0.000000    0.000000    
-0.526966    0.459706    0.149290    -7.405386    1.003700    -10.389228    1.228949    3.792061    -13.228629    -24.577078    7.840014    -2.656981    -26.338249    21.106457    5.918588    13.589467    -12.935894    8.345926    0.070310    2.575015    -10.079307    1.938036    17.039751    -29.004486    -1.622614    -47.510929    -69.273575    23.199297    -46.407703    13.274067    -27.426357    -14.287775    12.946972    -10.975354    -23.897461    9.960237    -10.478843    -24.668406    0.554262    -33.516121    -23.818293    -2.926293    161.132538    -61.195419    135.050354    -128.202225    65.945320    114.269371    -2.979164    -18.182123    4.437934    0.000000    0.000000    0.000000    -177.477539    -68.983528    176.704224    114.149460    76.879158    -124.541695    -11.255698    -12.507779    -1.607725    0.000000    0.000000    0.000000    
-0.526959    0.459850    0.149356    -7.477101    1.006943    -10.378892    1.166866    3.803617    -13.190243    -24.512802    7.841168    -2.649425    -26.354431    21.095690    5.921968    13.585669    -12.903743    8.346812    0.044525    2.567924    -10.085493    1.923833    17.076786    -29.006224    -1.617268    -47.472515    -69.280273    23.593338    -46.293602    13.543208    -27.406672    -14.213453    12.967688    -10.938264    -24.017019    9.911240    -10.398057    -24.499401    0.395717    -33.551678    -23.670822    -2.890080    161.105667    -61.187454    135.002365    -128.220474    65.946472    114.270721    -3.040344    -18.167328    4.453142    0.000000    0.000000    0.000000    -177.471786    -69.017174    176.695847    114.080704    76.855469    -124.482811    -11.273607    -12.600431    -1.624355    0.000000    0.000000    0.000000    
-0.526936    0.459980    0.149419    -7.543278    1.011743    -10.371678    1.107691    3.817639    -13.152380    -24.453461    7.838804    -2.642372    -26.359970    21.069611    5.920672    13.577305    -12.862828    8.345153    0.028981    2.556918    -10.091449    1.912979    17.126724    -29.012154    -1.619215    -47.446373    -69.295479    23.925781    -46.206451    13.765291    -27.384420    -14.133824    12.989017    -10.898310    -24.151575    9.859752    -10.314146    -24.304340    0.235623    -33.622959    -23.489693    -2.877597    161.081924    -61.177872    134.964996    -128.247742    65.951347    114.285309    -3.090967    -18.150566    4.475655    0.000000    0.000000    0.000000    -177.485779    -69.045212    176.671265    114.021713    76.836494    -124.433311    -11.293075    -12.683656    -1.637808    0.000000    0.000000    0.000000    
